<svg width="62" height="69" viewBox="0 0 62 69" fill="none" xmlns="http://www.w3.org/2000/svg">
<path d="M32.7365 60.1991C47.4419 60.1991 59.363 48.6168 59.363 34.3293C59.363 20.0418 47.4419 8.4595 32.7365 8.4595C18.0311 8.4595 6.10999 20.0418 6.10999 34.3293C6.10999 48.6168 18.0311 60.1991 32.7365 60.1991Z" fill="#EDEBDC"/>
<path d="M55.89 30.955V33.2045" stroke="#4C241D" stroke-width="1.74646" stroke-linecap="round" stroke-linejoin="round"/>
<path d="M55.89 37.7036V39.9532" stroke="#4C241D" stroke-width="1.74646" stroke-linecap="round" stroke-linejoin="round"/>
<path d="M51.2593 35.4541H53.5747" stroke="#4C241D" stroke-width="1.74646" stroke-linecap="round" stroke-linejoin="round"/>
<path d="M58.2054 35.4541H60.5207" stroke="#4C241D" stroke-width="1.74646" stroke-linecap="round" stroke-linejoin="round"/>
<path d="M4.37346 44.4522C5.33251 44.4522 6.10997 43.6969 6.10997 42.7651C6.10997 41.8333 5.33251 41.0779 4.37346 41.0779C3.41441 41.0779 2.63695 41.8333 2.63695 42.7651C2.63695 43.6969 3.41441 44.4522 4.37346 44.4522Z" fill="#4C241D"/>
<path d="M52.417 68.0725H9.58301V58.8212C9.58601 56.7773 10.2004 54.7782 11.3514 53.0672C12.5023 51.3563 14.1403 50.0072 16.066 49.1842L31 42.7651L45.9398 49.1842C47.8644 50.0081 49.5012 51.3575 50.6511 53.0684C51.801 54.7792 52.4145 56.7779 52.417 58.8212V68.0725Z" fill="white" stroke="#4C241D" stroke-width="1.74646" stroke-linecap="round" stroke-linejoin="round"/>
<path d="M35.0518 47.8266H40.8402V68.0725H35.0518V47.8266Z" fill="#E66353" stroke="#4C241D" stroke-width="1.74646" stroke-linecap="round" stroke-linejoin="round"/>
<path d="M31 54.5752C33.3111 54.5741 35.5632 53.8657 37.4364 52.5505C39.3097 51.2353 40.7088 49.3801 41.4353 47.2484L31 42.7651L20.5647 47.2484C21.2911 49.3801 22.6903 51.2353 24.5635 52.5505C26.4367 53.8657 28.6888 54.5741 31 54.5752Z" fill="#E66353" stroke="#4C241D" stroke-width="1.74646" stroke-linecap="round" stroke-linejoin="round"/>
<path d="M7.8465 3.54649C8.57026 3.54649 9.15699 2.97644 9.15699 2.27324C9.15699 1.57005 8.57026 1 7.8465 1C7.12274 1 6.53601 1.57005 6.53601 2.27324C6.53601 2.97644 7.12274 3.54649 7.8465 3.54649Z" fill="#4C241D"/>
<path d="M25.7905 41.0779H36.2095V44.4522C36.2095 45.6455 35.7217 46.7898 34.8532 47.6336C33.9848 48.4773 32.807 48.9513 31.5788 48.9513H30.4212C29.193 48.9513 28.0152 48.4773 27.1468 47.6336C26.2783 46.7898 25.7905 45.6455 25.7905 44.4522V41.0779Z" fill="#E7D1C4" stroke="#4C241D" stroke-width="1.74646" stroke-linecap="round" stroke-linejoin="round"/>
<path d="M16.5291 25.8935C16.14 25.8932 15.7548 25.9692 15.3966 26.1169C15.0384 26.2646 14.7146 26.4809 14.4444 26.7529C14.1742 27.025 13.9633 27.3472 13.8242 27.7002C13.6851 28.0533 13.6207 28.43 13.6349 28.8078C13.6696 29.2553 13.8116 29.6887 14.0494 30.0734C14.2871 30.4581 14.6142 30.7835 15.0044 31.0236C15.3497 31.2735 15.754 31.4354 16.1803 31.4943C16.6067 31.5533 17.0414 31.5074 17.4448 31.361C18.0163 34.077 19.3209 36.5966 21.2248 38.6614C23.1287 40.7262 25.5634 42.2621 28.2795 43.1115C29.8977 43.6002 31.6331 43.5821 33.2401 43.0598L33.7541 42.8978C36.4301 42.0543 38.8316 40.5438 40.7193 38.5172C42.607 36.4905 43.9148 34.0185 44.5124 31.3475C44.9087 31.4953 45.3358 31.5482 45.7576 31.5016C46.1794 31.455 46.5834 31.3103 46.9354 31.0798C47.3085 30.8654 47.6281 30.5733 47.8713 30.2246C48.1145 29.8759 48.2752 29.4793 48.342 29.0631C48.3943 28.6669 48.3591 28.2643 48.2387 27.8823C48.1184 27.5003 47.9156 27.1476 47.6439 26.8477C47.3723 26.5478 47.038 26.3076 46.6633 26.1431C46.2886 25.9785 45.8821 25.8934 45.4709 25.8935V21.2583L22.0697 18.7692L16.5291 20.832V25.8935Z" fill="#E7D1C4" stroke="#4C241D" stroke-width="1.74646" stroke-linecap="round" stroke-linejoin="round"/>
<path d="M36.7884 31.5174C37.4277 31.5174 37.9461 31.0138 37.9461 30.3926C37.9461 29.7714 37.4277 29.2678 36.7884 29.2678C36.149 29.2678 35.6307 29.7714 35.6307 30.3926C35.6307 31.0138 36.149 31.5174 36.7884 31.5174Z" fill="#4C241D"/>
<path d="M25.2116 31.5174C25.851 31.5174 26.3693 31.0138 26.3693 30.3926C26.3693 29.7714 25.851 29.2678 25.2116 29.2678C24.5723 29.2678 24.054 29.7714 24.054 30.3926C24.054 31.0138 24.5723 31.5174 25.2116 31.5174Z" fill="#4C241D"/>
<path d="M45.4709 20.832C45.4709 1.71085 16.4654 3.96039 16.5291 18.3969C16.536 20.0177 16.5719 21.7712 16.5545 22.9927C18.0288 23.0824 19.5065 22.8793 20.8974 22.3958C22.2882 21.9124 23.5632 21.1587 24.6444 20.1808C28.0201 26.5312 37.4297 29.1362 45.4709 23.0478V20.832Z" fill="#BF7E68" stroke="#4C241D" stroke-width="1.74646" stroke-linecap="round" stroke-linejoin="round"/>
<path d="M16.5291 68.0725V62.4486" stroke="#4C241D" stroke-width="1.74646" stroke-linecap="round" stroke-linejoin="round"/>
<path d="M44.3133 68.0725V62.4486" stroke="#4C241D" stroke-width="1.74646" stroke-linecap="round" stroke-linejoin="round"/>
<path d="M30.9997 19.7072C39.6312 19.7072 46.6283 17.7372 46.6283 15.3071C46.6283 12.877 39.6312 10.907 30.9997 10.907C22.3683 10.907 15.3711 12.877 15.3711 15.3071C15.3711 17.7372 22.3683 19.7072 30.9997 19.7072Z" fill="#B5A19C" stroke="#4C241D" stroke-width="1.74646" stroke-linecap="round" stroke-linejoin="round"/>
<path d="M46.6286 15.2081H15.3714V11.0465C15.3492 9.88633 15.6327 8.73995 16.195 7.71626C16.7573 6.69256 17.5796 5.82557 18.5839 5.19765C26.6715 0.452231 34.9072 0.638943 43.2818 5.26851C44.3233 5.88464 45.1803 6.75523 45.7676 7.7935C46.3548 8.83177 46.6517 10.0015 46.6286 11.1859V15.2081Z" fill="#6B4F5B" stroke="#4C241D" stroke-width="1.74646" stroke-linecap="round" stroke-linejoin="round"/>
<path d="M50.1016 15.2081C50.1016 13.9799 48.9636 12.9147 47.2804 12.3253C46.6737 10.6899 45.5774 9.58426 44.3132 9.58426C43.0491 9.58426 41.9527 10.6899 41.3461 12.3253C39.6629 12.9147 38.5249 13.9799 38.5249 15.2081C38.5249 16.4364 39.6629 17.5015 41.3461 18.0909C41.9527 19.7263 43.0491 20.832 44.3132 20.832C45.5774 20.832 46.6737 19.7263 47.2804 18.0909C48.9636 17.5015 50.1016 16.4364 50.1016 15.2081Z" fill="#E66353" stroke="#4C241D" stroke-width="1.74646" stroke-linecap="round" stroke-linejoin="round"/>
<path d="M44.3133 16.3329C44.9526 16.3329 45.4709 15.8293 45.4709 15.2081C45.4709 14.587 44.9526 14.0834 44.3133 14.0834C43.6739 14.0834 43.1556 14.587 43.1556 15.2081C43.1556 15.8293 43.6739 16.3329 44.3133 16.3329Z" fill="#FFCE56"/>
<path d="M1 10.2434L4.27391 13.4243" stroke="#4C241D" stroke-width="1.74646" stroke-linecap="round" stroke-linejoin="round"/>
<path d="M4.27391 10.2434L1 13.4243" stroke="#4C241D" stroke-width="1.74646" stroke-linecap="round" stroke-linejoin="round"/>
<path d="M57.7261 47.3609L61 50.5418" stroke="#4C241D" stroke-width="1.74646" stroke-linecap="round" stroke-linejoin="round"/>
<path d="M61 47.3609L57.7261 50.5418" stroke="#4C241D" stroke-width="1.74646" stroke-linecap="round" stroke-linejoin="round"/>
</svg>
