<svg width="58" height="54" viewBox="0 0 58 54" fill="none" xmlns="http://www.w3.org/2000/svg">
<path d="M38.2172 51.5596C34.0734 53.4522 29.5182 54.2656 24.9755 53.924C20.4328 53.5824 16.0504 52.097 12.2363 49.606C8.42214 47.1151 5.30027 43.6995 3.16131 39.6774C1.02235 35.6553 -0.064162 31.1574 0.0029262 26.6024C0.0700144 22.0474 1.28852 17.5834 3.54501 13.626C5.8015 9.66863 9.0226 6.34653 12.9084 3.96897C16.7943 1.59141 21.2185 0.2357 25.7693 0.0280505C30.3201 -0.179599 34.8494 0.767563 38.9356 2.78136L36.8982 6.91543C33.5095 5.24538 29.7533 4.4599 25.9794 4.6321C22.2054 4.80431 18.5364 5.9286 15.3138 7.90031C12.0913 9.87203 9.42003 12.6271 7.54872 15.9089C5.67741 19.1908 4.6669 22.8928 4.61127 26.6702C4.55563 30.4477 5.45668 34.1779 7.23052 37.5134C9.00437 40.849 11.5933 43.6815 14.7564 45.7472C17.9195 47.813 21.5538 49.0449 25.3211 49.3281C29.0883 49.6114 32.866 48.9369 36.3024 47.3674L38.2172 51.5596Z" fill="white"/>
<path d="M25.9393 27.0607C25.3536 26.4749 25.3536 25.5251 25.9393 24.9393L35.4853 15.3934C36.0711 14.8076 37.0208 14.8076 37.6066 15.3934C38.1924 15.9792 38.1924 16.9289 37.6066 17.5147L29.1213 26L37.6066 34.4853C38.1924 35.0711 38.1924 36.0208 37.6066 36.6066C37.0208 37.1924 36.0711 37.1924 35.4853 36.6066L25.9393 27.0607ZM58 27.5L27 27.5V24.5L58 24.5V27.5Z" fill="white"/>
</svg>
