<svg width="186" height="62" viewBox="0 0 186 62" fill="none" xmlns="http://www.w3.org/2000/svg">
<path d="M77.1641 39.0781C78.1641 39.0625 78.9844 39.2422 79.625 39.6172C80.2812 39.9922 80.8125 40.4375 81.2188 40.9531C81.625 41.4688 81.9375 41.9922 82.1562 42.5234C82.375 43.0391 82.5469 43.4453 82.6719 43.7422C82.7031 43.8203 82.7656 43.9219 82.8594 44.0469C82.9375 44.1562 83.0469 44.2891 83.1875 44.4453C83.3438 44.5859 83.5391 44.75 83.7734 44.9375C83.2891 44.9531 82.8594 44.9688 82.4844 44.9844C82.1094 44.9844 81.7891 44.9922 81.5234 45.0078C81.2266 45.0234 80.9609 45.0391 80.7266 45.0547C80.4922 45.0703 80.2031 45.0938 79.8594 45.125C79.5469 45.1562 79.1641 45.1875 78.7109 45.2188C78.2578 45.25 77.7031 45.2969 77.0469 45.3594C77.4375 44.8906 77.7422 44.4766 77.9609 44.1172C78.1953 43.7422 78.3672 43.4141 78.4766 43.1328C78.6016 42.8359 78.6719 42.5781 78.6875 42.3594C78.7188 42.1406 78.7109 41.9531 78.6641 41.7969C78.5703 41.4375 78.3281 41.1797 77.9375 41.0234C76.8125 40.7109 75.8281 40.9609 74.9844 41.7734C74.1562 42.5703 73.5625 43.8828 73.2031 45.7109C73.0312 46.6172 72.8672 47.5625 72.7109 48.5469C72.5703 49.5156 72.5156 50.4062 72.5469 51.2188C72.5781 52.0156 72.7344 52.6641 73.0156 53.1641C73.2969 53.6641 73.7812 53.8984 74.4688 53.8672C75.1406 53.8359 75.7109 53.7266 76.1797 53.5391C76.6484 53.3359 77.0234 53.1016 77.3047 52.8359C77.5859 52.5547 77.7812 52.2578 77.8906 51.9453C78.0156 51.6172 78.0625 51.3125 78.0312 51.0312C77.9688 50.8125 77.8047 50.5781 77.5391 50.3281C77.3047 50.1094 76.9531 49.8672 76.4844 49.6016C76.0156 49.3203 75.3438 49.0312 74.4688 48.7344C75.2969 48.6875 75.9766 48.6562 76.5078 48.6406C77.0547 48.6094 77.4844 48.5781 77.7969 48.5469C78.1719 48.5156 78.4609 48.4922 78.6641 48.4766C78.8516 48.4609 79.125 48.4453 79.4844 48.4297C79.7969 48.4141 80.1953 48.4062 80.6797 48.4062C81.1797 48.4062 81.8047 48.3984 82.5547 48.3828C82.2734 48.6641 82.0547 48.9219 81.8984 49.1562C81.8203 49.2812 81.75 49.3906 81.6875 49.4844C81.625 49.6406 81.6016 49.9609 81.6172 50.4453C81.6172 50.8516 81.6484 51.4531 81.7109 52.25C81.7734 53.0312 81.8906 54.1016 82.0625 55.4609L78.9453 55.8828L79.0859 52.7188C78.7266 53.5781 78.2734 54.2188 77.7266 54.6406C77.1953 55.0625 76.6875 55.3594 76.2031 55.5312C75.625 55.7344 75.0234 55.8281 74.3984 55.8125C73.5859 55.7344 72.7734 55.5469 71.9609 55.25C71.1484 54.9531 70.4297 54.5 69.8047 53.8906C69.1797 53.2656 68.6953 52.4609 68.3516 51.4766C68.0234 50.4922 67.9219 49.2734 68.0469 47.8203C68.1875 46.3672 68.5312 45.1016 69.0781 44.0234C69.6406 42.9297 70.3359 42.0234 71.1641 41.3047C71.9922 40.5859 72.9219 40.0469 73.9531 39.6875C75 39.3125 76.0703 39.1094 77.1641 39.0781ZM89.8203 45.5C90.2266 45.5 90.6484 45.5781 91.0859 45.7344C91.5234 45.875 91.9453 46.0625 92.3516 46.2969C92.7578 46.5156 93.125 46.7578 93.4531 47.0234C93.7969 47.2734 94.0781 47.5156 94.2969 47.75C94.6875 48.1719 94.9531 48.7422 95.0938 49.4609C95.25 50.1641 95.2812 50.8906 95.1875 51.6406C95.0938 52.375 94.875 53.0703 94.5312 53.7266C94.1875 54.3828 93.7109 54.8672 93.1016 55.1797C92.6641 55.3984 92.2344 55.5703 91.8125 55.6953C91.3906 55.8203 90.9844 55.9141 90.5938 55.9766C90.2031 56.0391 89.8359 56.0703 89.4922 56.0703C89.1484 56.0703 88.8516 56.0625 88.6016 56.0469C88.1328 56.0156 87.6406 55.8516 87.125 55.5547C86.625 55.2578 86.1484 54.8906 85.6953 54.4531C85.2578 54.0156 84.8828 53.5391 84.5703 53.0234C84.2578 52.4922 84.0703 51.9922 84.0078 51.5234C83.9141 50.8828 83.8984 50.2109 83.9609 49.5078C84.0234 48.8047 84.25 48.1562 84.6406 47.5625C85.0469 46.9688 85.6562 46.4766 86.4688 46.0859C87.2969 45.6953 88.4141 45.5 89.8203 45.5ZM89.0469 54.5938C89.2188 54.625 89.4531 54.5859 89.75 54.4766C90.0469 54.3516 90.3359 54.1562 90.6172 53.8906C90.9141 53.625 91.1719 53.2891 91.3906 52.8828C91.625 52.4609 91.7656 51.9531 91.8125 51.3594C91.8594 50.7812 91.8594 50.25 91.8125 49.7656C91.7812 49.2812 91.7109 48.8594 91.6016 48.5C91.4922 48.125 91.3672 47.8203 91.2266 47.5859C91.0859 47.3516 90.9375 47.1875 90.7812 47.0938C90.5156 46.9531 90.1953 46.8438 89.8203 46.7656C89.4453 46.6719 89.125 46.6875 88.8594 46.8125C88.7344 46.875 88.5781 47.0078 88.3906 47.2109C88.2031 47.4141 88.0156 47.6719 87.8281 47.9844C87.6406 48.2812 87.4688 48.625 87.3125 49.0156C87.1719 49.4062 87.0703 49.8125 87.0078 50.2344C86.9453 50.6562 86.9297 51.1094 86.9609 51.5938C87.0078 52.0781 87.1094 52.5391 87.2656 52.9766C87.4219 53.3984 87.6406 53.7656 87.9219 54.0781C88.2188 54.375 88.5938 54.5469 89.0469 54.5938ZM105.125 39.0781C106.125 39.0625 106.945 39.2422 107.586 39.6172C108.242 39.9922 108.773 40.4375 109.18 40.9531C109.586 41.4688 109.898 41.9922 110.117 42.5234C110.336 43.0391 110.508 43.4453 110.633 43.7422C110.664 43.8203 110.727 43.9219 110.82 44.0469C110.898 44.1562 111.008 44.2891 111.148 44.4453C111.305 44.5859 111.5 44.75 111.734 44.9375C111.25 44.9531 110.82 44.9688 110.445 44.9844C110.07 44.9844 109.75 44.9922 109.484 45.0078C109.188 45.0234 108.922 45.0391 108.688 45.0547C108.453 45.0703 108.164 45.0938 107.82 45.125C107.508 45.1562 107.125 45.1875 106.672 45.2188C106.219 45.25 105.664 45.2969 105.008 45.3594C105.398 44.8906 105.703 44.4766 105.922 44.1172C106.156 43.7422 106.328 43.4141 106.438 43.1328C106.562 42.8359 106.633 42.5781 106.648 42.3594C106.68 42.1406 106.672 41.9531 106.625 41.7969C106.531 41.4375 106.289 41.1797 105.898 41.0234C104.773 40.7109 103.789 40.9609 102.945 41.7734C102.117 42.5703 101.523 43.8828 101.164 45.7109C100.992 46.6172 100.828 47.5625 100.672 48.5469C100.531 49.5156 100.477 50.4062 100.508 51.2188C100.539 52.0156 100.695 52.6641 100.977 53.1641C101.258 53.6641 101.742 53.8984 102.43 53.8672C103.102 53.8359 103.672 53.7266 104.141 53.5391C104.609 53.3359 104.984 53.1016 105.266 52.8359C105.547 52.5547 105.742 52.2578 105.852 51.9453C105.977 51.6172 106.023 51.3125 105.992 51.0312C105.93 50.8125 105.766 50.5781 105.5 50.3281C105.266 50.1094 104.914 49.8672 104.445 49.6016C103.977 49.3203 103.305 49.0312 102.43 48.7344C103.258 48.6875 103.938 48.6562 104.469 48.6406C105.016 48.6094 105.445 48.5781 105.758 48.5469C106.133 48.5156 106.422 48.4922 106.625 48.4766C106.812 48.4609 107.086 48.4453 107.445 48.4297C107.758 48.4141 108.156 48.4062 108.641 48.4062C109.141 48.4062 109.766 48.3984 110.516 48.3828C110.234 48.6641 110.016 48.9219 109.859 49.1562C109.781 49.2812 109.711 49.3906 109.648 49.4844C109.586 49.6406 109.562 49.9609 109.578 50.4453C109.578 50.8516 109.609 51.4531 109.672 52.25C109.734 53.0312 109.852 54.1016 110.023 55.4609L106.906 55.8828L107.047 52.7188C106.688 53.5781 106.234 54.2188 105.688 54.6406C105.156 55.0625 104.648 55.3594 104.164 55.5312C103.586 55.7344 102.984 55.8281 102.359 55.8125C101.547 55.7344 100.734 55.5469 99.9219 55.25C99.1094 54.9531 98.3906 54.5 97.7656 53.8906C97.1406 53.2656 96.6562 52.4609 96.3125 51.4766C95.9844 50.4922 95.8828 49.2734 96.0078 47.8203C96.1484 46.3672 96.4922 45.1016 97.0391 44.0234C97.6016 42.9297 98.2969 42.0234 99.125 41.3047C99.9531 40.5859 100.883 40.0469 101.914 39.6875C102.961 39.3125 104.031 39.1094 105.125 39.0781ZM111.5 44.7734C111.797 44.7891 112.062 44.7969 112.297 44.7969C112.547 44.7812 112.758 44.7656 112.93 44.75C113.133 44.7344 113.312 44.7188 113.469 44.7031C113.703 44.6719 113.945 44.6328 114.195 44.5859C114.414 44.5547 114.641 44.5156 114.875 44.4688C115.125 44.4062 115.367 44.3359 115.602 44.2578C115.508 44.4922 115.43 44.6953 115.367 44.8672C115.305 45.0391 115.258 45.1875 115.227 45.3125C115.18 45.4531 115.156 45.5703 115.156 45.6641C115.141 45.7734 115.133 45.9062 115.133 46.0625C115.117 46.3281 115.117 46.7578 115.133 47.3516C115.945 46.6484 116.625 46.1016 117.172 45.7109C117.734 45.3203 118.18 45.0156 118.508 44.7969C118.898 44.5469 119.203 44.3828 119.422 44.3047C120 44.2109 120.508 44.3438 120.945 44.7031C121.133 44.8594 121.312 45.0703 121.484 45.3359C121.656 45.5859 121.805 45.9219 121.93 46.3438C122.055 46.7656 122.148 47.2734 122.211 47.8672C122.273 48.4453 122.281 49.1406 122.234 49.9531C121.906 49.9844 121.609 50.0156 121.344 50.0469C121.094 50.0781 120.883 50.1016 120.711 50.1172C120.508 50.1484 120.32 50.1641 120.148 50.1641L119.516 50.2344C119.297 50.2656 119.023 50.2969 118.695 50.3281C118.383 50.3438 118 50.375 117.547 50.4219C118.203 49.8906 118.625 49.4297 118.812 49.0391C119.016 48.6328 119.102 48.2969 119.07 48.0312C119.039 47.7344 118.898 47.4766 118.648 47.2578C118.352 47.0859 118.031 47.0234 117.688 47.0703C117.391 47.1016 117.047 47.2344 116.656 47.4688C116.266 47.7031 115.852 48.1406 115.414 48.7812C115.445 49.7812 115.477 50.6094 115.508 51.2656C115.555 51.9219 115.594 52.4531 115.625 52.8594C115.672 53.3281 115.711 53.6953 115.742 53.9609C115.789 54.1953 115.883 54.4453 116.023 54.7109C116.133 54.9297 116.289 55.1719 116.492 55.4375C116.695 55.7031 116.961 55.9688 117.289 56.2344C116.602 56.2031 116.039 56.2031 115.602 56.2344C115.336 56.25 115.102 56.2656 114.898 56.2812C114.68 56.3125 114.445 56.3438 114.195 56.375C113.977 56.4062 113.719 56.4375 113.422 56.4688C113.141 56.5156 112.828 56.5625 112.484 56.6094C112.609 56.4375 112.711 56.2344 112.789 56C112.867 55.7812 112.93 55.5703 112.977 55.3672C113.039 55.1328 113.086 54.8906 113.117 54.6406C113.133 54.4219 113.141 54.0938 113.141 53.6562C113.156 53.2188 113.148 52.7266 113.117 52.1797C113.102 51.6172 113.078 51.0391 113.047 50.4453C113.016 49.8359 112.977 49.2656 112.93 48.7344C112.883 48.2031 112.828 47.7422 112.766 47.3516C112.719 46.9453 112.664 46.6641 112.602 46.5078C112.523 46.3203 112.43 46.1328 112.32 45.9453C112.227 45.7734 112.109 45.5938 111.969 45.4062C111.828 45.2031 111.672 44.9922 111.5 44.7734ZM129.5 45.5C129.906 45.5 130.328 45.5781 130.766 45.7344C131.203 45.875 131.625 46.0625 132.031 46.2969C132.438 46.5156 132.805 46.7578 133.133 47.0234C133.477 47.2734 133.758 47.5156 133.977 47.75C134.367 48.1719 134.633 48.7422 134.773 49.4609C134.93 50.1641 134.961 50.8906 134.867 51.6406C134.773 52.375 134.555 53.0703 134.211 53.7266C133.867 54.3828 133.391 54.8672 132.781 55.1797C132.344 55.3984 131.914 55.5703 131.492 55.6953C131.07 55.8203 130.664 55.9141 130.273 55.9766C129.883 56.0391 129.516 56.0703 129.172 56.0703C128.828 56.0703 128.531 56.0625 128.281 56.0469C127.812 56.0156 127.32 55.8516 126.805 55.5547C126.305 55.2578 125.828 54.8906 125.375 54.4531C124.938 54.0156 124.562 53.5391 124.25 53.0234C123.938 52.4922 123.75 51.9922 123.688 51.5234C123.594 50.8828 123.578 50.2109 123.641 49.5078C123.703 48.8047 123.93 48.1562 124.32 47.5625C124.727 46.9688 125.336 46.4766 126.148 46.0859C126.977 45.6953 128.094 45.5 129.5 45.5ZM128.727 54.5938C128.898 54.625 129.133 54.5859 129.43 54.4766C129.727 54.3516 130.016 54.1562 130.297 53.8906C130.594 53.625 130.852 53.2891 131.07 52.8828C131.305 52.4609 131.445 51.9531 131.492 51.3594C131.539 50.7812 131.539 50.25 131.492 49.7656C131.461 49.2812 131.391 48.8594 131.281 48.5C131.172 48.125 131.047 47.8203 130.906 47.5859C130.766 47.3516 130.617 47.1875 130.461 47.0938C130.195 46.9531 129.875 46.8438 129.5 46.7656C129.125 46.6719 128.805 46.6875 128.539 46.8125C128.414 46.875 128.258 47.0078 128.07 47.2109C127.883 47.4141 127.695 47.6719 127.508 47.9844C127.32 48.2812 127.148 48.625 126.992 49.0156C126.852 49.4062 126.75 49.8125 126.688 50.2344C126.625 50.6562 126.609 51.1094 126.641 51.5938C126.688 52.0781 126.789 52.5391 126.945 52.9766C127.102 53.3984 127.32 53.7656 127.602 54.0781C127.898 54.375 128.273 54.5469 128.727 54.5938ZM149.094 47.6797C148.906 47.6484 148.672 47.625 148.391 47.6094C148.125 47.5938 147.867 47.5859 147.617 47.5859C147.336 47.5859 147.039 47.5938 146.727 47.6094C146.398 47.625 146.07 47.6406 145.742 47.6562C145.461 47.6719 145.141 47.6953 144.781 47.7266C144.438 47.7422 144.102 47.7656 143.773 47.7969C143.898 47.7344 144.008 47.6484 144.102 47.5391C144.211 47.4297 144.305 47.3203 144.383 47.2109C144.461 47.0859 144.531 46.9531 144.594 46.8125C144.672 46.5781 144.664 46.2969 144.57 45.9688C144.477 45.625 144.305 45.3125 144.055 45.0312C143.82 44.75 143.516 44.5312 143.141 44.375C142.781 44.2031 142.383 44.1641 141.945 44.2578C141.477 44.3672 141.055 44.5312 140.68 44.75C140.32 44.9688 140.016 45.2734 139.766 45.6641C139.531 46.0391 139.359 46.5078 139.25 47.0703C139.156 47.6172 139.133 48.2734 139.18 49.0391C139.242 49.9922 139.398 50.75 139.648 51.3125C139.898 51.875 140.203 52.2969 140.562 52.5781C140.922 52.8594 141.312 53.0312 141.734 53.0938C142.172 53.1406 142.602 53.1406 143.023 53.0938C143.32 53.0312 143.594 52.8984 143.844 52.6953C144.047 52.5234 144.234 52.2734 144.406 51.9453C144.578 51.6172 144.656 51.1641 144.641 50.5859L147.5 50.4688C147.172 51.3906 146.773 52.125 146.305 52.6719C145.836 53.2031 145.383 53.6172 144.945 53.9141C144.43 54.2578 143.914 54.4922 143.398 54.6172C142.758 54.7266 142.188 54.7734 141.688 54.7578C141.188 54.7266 140.734 54.6484 140.328 54.5234C139.922 54.3984 139.547 54.2422 139.203 54.0547C138.859 53.8672 138.531 53.6641 138.219 53.4453C138.016 53.3047 137.789 53.0703 137.539 52.7422C137.289 52.4141 137.055 52.0234 136.836 51.5703C136.617 51.1016 136.438 50.5859 136.297 50.0234C136.156 49.4609 136.102 48.8828 136.133 48.2891C136.164 47.6797 136.305 47.0703 136.555 46.4609C136.805 45.8516 137.203 45.2656 137.75 44.7031C138.578 43.8594 139.461 43.3125 140.398 43.0625C141.352 42.7969 142.25 42.7266 143.094 42.8516C143.938 42.9609 144.688 43.2031 145.344 43.5781C146 43.9531 146.461 44.3594 146.727 44.7969C146.992 45.2344 147.188 45.5703 147.312 45.8047C147.453 46.0234 147.555 46.1953 147.617 46.3203C147.695 46.4297 147.758 46.5156 147.805 46.5781C147.867 46.625 147.953 46.6953 148.062 46.7891C148.141 46.8672 148.234 46.9531 148.344 47.0469C148.438 47.125 148.547 47.2188 148.672 47.3281C148.797 47.4375 148.938 47.5547 149.094 47.6797ZM154.836 52.2266C155.273 52.2266 155.68 52.1797 156.055 52.0859C156.367 52.0078 156.664 51.8828 156.945 51.7109C157.242 51.5234 157.438 51.25 157.531 50.8906C157.844 50.9531 158.109 51.0078 158.328 51.0547C158.547 51.0859 158.734 51.1172 158.891 51.1484C159.062 51.1953 159.211 51.2266 159.336 51.2422C159.461 51.2734 159.609 51.3047 159.781 51.3359C159.938 51.3672 160.125 51.4062 160.344 51.4531C160.578 51.4844 160.852 51.5312 161.164 51.5938C160.93 51.5625 160.688 51.5859 160.438 51.6641C160.203 51.7422 159.977 51.8281 159.758 51.9219C159.508 52.0312 159.273 52.1641 159.055 52.3203C158.914 52.4141 158.75 52.5547 158.562 52.7422C158.391 52.9297 158.141 53.1094 157.812 53.2812C157.484 53.4531 157.047 53.6016 156.5 53.7266C155.969 53.8359 155.281 53.875 154.438 53.8438C153.422 53.8125 152.57 53.6328 151.883 53.3047C151.195 52.9609 150.641 52.5469 150.219 52.0625C149.797 51.5625 149.492 51.0234 149.305 50.4453C149.117 49.8672 149.016 49.3281 149 48.8281C148.984 48.3281 149.133 47.8047 149.445 47.2578C149.758 46.7109 150.195 46.2109 150.758 45.7578C151.336 45.3047 152.031 44.9375 152.844 44.6562C153.656 44.3594 154.547 44.2109 155.516 44.2109C156.078 44.2109 156.594 44.2812 157.062 44.4219C157.547 44.5469 157.984 44.7188 158.375 44.9375C158.781 45.1562 159.133 45.4062 159.43 45.6875C159.727 45.9531 159.977 46.2266 160.18 46.5078C160.383 46.8047 160.555 47.1172 160.695 47.4453C160.82 47.7266 160.922 48.0469 161 48.4062C161.078 48.7656 161.102 49.1328 161.07 49.5078C159.883 49.5391 158.922 49.5625 158.188 49.5781C157.469 49.5938 156.906 49.6016 156.5 49.6016H155.445H154.648C154.367 49.6016 154 49.6094 153.547 49.625C153.094 49.6406 152.539 49.6641 151.883 49.6953C151.961 50.3203 152.156 50.8047 152.469 51.1484C152.797 51.4766 153.141 51.7266 153.5 51.8984C153.906 52.0859 154.352 52.1953 154.836 52.2266ZM152.727 48.0078C153.227 48.0391 153.641 48.0625 153.969 48.0781C154.312 48.0938 154.594 48.1094 154.812 48.125C155.047 48.1406 155.234 48.1484 155.375 48.1484H155.961C156.352 48.1484 157.078 48.125 158.141 48.0781C158.094 47.3906 157.945 46.8672 157.695 46.5078C157.461 46.1484 157.211 45.8828 156.945 45.7109C156.633 45.5234 156.289 45.4141 155.914 45.3828C154.898 45.3984 154.141 45.6094 153.641 46.0156C153.156 46.4219 152.852 47.0859 152.727 48.0078ZM161.773 44.7734C162.07 44.7891 162.336 44.7969 162.57 44.7969C162.82 44.7812 163.031 44.7656 163.203 44.75C163.406 44.7344 163.586 44.7188 163.742 44.7031C163.977 44.6719 164.219 44.6328 164.469 44.5859C164.688 44.5547 164.914 44.5156 165.148 44.4688C165.398 44.4062 165.641 44.3359 165.875 44.2578C165.781 44.4922 165.703 44.6953 165.641 44.8672C165.578 45.0391 165.531 45.1875 165.5 45.3125C165.453 45.4531 165.43 45.5703 165.43 45.6641C165.414 45.7734 165.406 45.9062 165.406 46.0625C165.391 46.3281 165.391 46.7578 165.406 47.3516C166.219 46.6484 166.898 46.1016 167.445 45.7109C168.008 45.3203 168.453 45.0156 168.781 44.7969C169.172 44.5469 169.477 44.3828 169.695 44.3047C170.273 44.2109 170.781 44.3438 171.219 44.7031C171.406 44.8594 171.586 45.0703 171.758 45.3359C171.93 45.5859 172.078 45.9219 172.203 46.3438C172.328 46.7656 172.422 47.2734 172.484 47.8672C172.547 48.4453 172.555 49.1406 172.508 49.9531C172.18 49.9844 171.883 50.0156 171.617 50.0469C171.367 50.0781 171.156 50.1016 170.984 50.1172C170.781 50.1484 170.594 50.1641 170.422 50.1641L169.789 50.2344C169.57 50.2656 169.297 50.2969 168.969 50.3281C168.656 50.3438 168.273 50.375 167.82 50.4219C168.477 49.8906 168.898 49.4297 169.086 49.0391C169.289 48.6328 169.375 48.2969 169.344 48.0312C169.312 47.7344 169.172 47.4766 168.922 47.2578C168.625 47.0859 168.305 47.0234 167.961 47.0703C167.664 47.1016 167.32 47.2344 166.93 47.4688C166.539 47.7031 166.125 48.1406 165.688 48.7812C165.719 49.7812 165.75 50.6094 165.781 51.2656C165.828 51.9219 165.867 52.4531 165.898 52.8594C165.945 53.3281 165.984 53.6953 166.016 53.9609C166.062 54.1953 166.156 54.4453 166.297 54.7109C166.406 54.9297 166.562 55.1719 166.766 55.4375C166.969 55.7031 167.234 55.9688 167.562 56.2344C166.875 56.2031 166.312 56.2031 165.875 56.2344C165.609 56.25 165.375 56.2656 165.172 56.2812C164.953 56.3125 164.719 56.3438 164.469 56.375C164.25 56.4062 163.992 56.4375 163.695 56.4688C163.414 56.5156 163.102 56.5625 162.758 56.6094C162.883 56.4375 162.984 56.2344 163.062 56C163.141 55.7812 163.203 55.5703 163.25 55.3672C163.312 55.1328 163.359 54.8906 163.391 54.6406C163.406 54.4219 163.414 54.0938 163.414 53.6562C163.43 53.2188 163.422 52.7266 163.391 52.1797C163.375 51.6172 163.352 51.0391 163.32 50.4453C163.289 49.8359 163.25 49.2656 163.203 48.7344C163.156 48.2031 163.102 47.7422 163.039 47.3516C162.992 46.9453 162.938 46.6641 162.875 46.5078C162.797 46.3203 162.703 46.1328 162.594 45.9453C162.5 45.7734 162.383 45.5938 162.242 45.4062C162.102 45.2031 161.945 44.9922 161.773 44.7734ZM172.297 44.0234C172.609 44.0703 172.891 44.1094 173.141 44.1406C173.375 44.1562 173.586 44.1719 173.773 44.1875C173.977 44.2031 174.172 44.2109 174.359 44.2109C174.531 44.2109 174.75 44.2031 175.016 44.1875C175.234 44.1719 175.516 44.1562 175.859 44.1406C176.219 44.1094 176.641 44.0703 177.125 44.0234C177.094 44.0859 177.031 44.2812 176.938 44.6094C176.844 44.9219 176.75 45.3125 176.656 45.7812C176.562 46.2344 176.477 46.7422 176.398 47.3047C176.336 47.8516 176.305 48.3984 176.305 48.9453C176.32 49.4766 176.391 49.9844 176.516 50.4688C176.641 50.9375 176.844 51.3203 177.125 51.6172C177.719 52.2266 178.242 52.5938 178.695 52.7188C179.164 52.8438 179.57 52.8281 179.914 52.6719C180.258 52.5156 180.539 52.2812 180.758 51.9688C180.977 51.6562 181.133 51.3672 181.227 51.1016C181.461 50.3828 181.602 49.625 181.648 48.8281C181.68 48.1406 181.625 47.375 181.484 46.5312C181.344 45.6875 181.008 44.8281 180.477 43.9531C180.883 43.9844 181.234 44.0078 181.531 44.0234C181.828 44.0391 182.086 44.0547 182.305 44.0703C182.555 44.0859 182.773 44.1016 182.961 44.1172C183.133 44.1328 183.336 44.1328 183.57 44.1172C183.773 44.1172 184.016 44.1094 184.297 44.0938C184.594 44.0625 184.922 44.0312 185.281 44C185.344 45.5312 185.398 46.8984 185.445 48.1016C185.492 49.2891 185.523 50.3438 185.539 51.2656C185.57 52.1719 185.586 52.9609 185.586 53.6328C185.586 54.2891 185.586 54.8438 185.586 55.2969C185.57 56.375 185.523 57.0859 185.445 57.4297C185.32 57.9141 185.094 58.3984 184.766 58.8828C184.453 59.3672 184.055 59.7969 183.57 60.1719C183.086 60.5625 182.523 60.8594 181.883 61.0625C181.258 61.2812 180.57 61.3594 179.82 61.2969C179.086 61.2344 178.5 61.1328 178.062 60.9922C177.641 60.8672 177.305 60.7188 177.055 60.5469C176.82 60.375 176.648 60.1953 176.539 60.0078C176.445 59.8203 176.375 59.625 176.328 59.4219C176.281 59.2344 176.234 59.0547 176.188 58.8828C176.141 58.7109 176.047 58.5625 175.906 58.4375C175.734 58.2969 175.555 58.1562 175.367 58.0156C175.195 57.8906 175.008 57.7656 174.805 57.6406C174.617 57.5156 174.43 57.4141 174.242 57.3359L179.234 57.0547C179.094 57.2422 178.992 57.4141 178.93 57.5703C178.867 57.7266 178.828 57.8594 178.812 57.9688C178.797 58.1094 178.805 58.2266 178.836 58.3203C178.898 58.5078 179.008 58.7109 179.164 58.9297C179.336 59.1641 179.555 59.3438 179.82 59.4688C180.086 59.6094 180.398 59.6562 180.758 59.6094C181.133 59.5625 181.555 59.3672 182.023 59.0234C182.414 58.7266 182.742 58.25 183.008 57.5938C183.227 57.0312 183.398 56.2422 183.523 55.2266C183.648 54.2109 183.625 52.875 183.453 51.2188C183.172 52.1875 182.789 52.9297 182.305 53.4453C181.82 53.9609 181.336 54.3359 180.852 54.5703C180.289 54.8516 179.703 55 179.094 55.0156C178.281 54.9844 177.586 54.8828 177.008 54.7109C176.43 54.5234 175.953 54.2734 175.578 53.9609C175.203 53.6484 174.906 53.2812 174.688 52.8594C174.484 52.4219 174.336 51.9375 174.242 51.4062C174.148 50.875 174.102 50.3438 174.102 49.8125C174.102 49.2656 174.102 48.7578 174.102 48.2891C174.117 47.8203 174.125 47.3984 174.125 47.0234C174.125 46.6328 174.086 46.3203 174.008 46.0859C173.914 45.8516 173.789 45.6172 173.633 45.3828C173.508 45.1797 173.336 44.9609 173.117 44.7266C172.883 44.4766 172.609 44.2422 172.297 44.0234Z" fill="white"/>
<path d="M68 21C68 26.5228 63.5228 31 58 31C52.4772 31 48 26.5228 48 21C48 15.4772 52.4772 11 58 11C63.5228 11 68 15.4772 68 21Z" fill="#FFF3B2"/>
<circle cx="39" cy="18" r="6" fill="#FFF3B2"/>
<ellipse cx="27" cy="28.5" rx="5" ry="4.5" fill="#FFF3B2"/>
<path d="M43.9036 30.2806C44.9597 30.72 45.4309 31.9662 44.8246 32.9363C42.8525 36.0918 40.0511 38.76 36.6608 40.6898C32.6282 42.9852 27.9437 44.1329 23.1996 43.9878C18.4555 43.8427 13.8649 42.4112 10.0082 39.8745C6.15159 37.3378 3.20216 33.8098 1.53292 29.7365C-0.136314 25.6632 -0.450395 21.2277 0.630398 16.9908C1.71119 12.7539 4.13832 8.90593 7.60485 5.9335C11.0714 2.96106 15.4216 0.997666 20.1055 0.291588C24.1235 -0.314127 28.2323 0.0287846 32.048 1.27378C33.075 1.60889 33.5127 2.78691 33.0333 3.75505C32.5964 4.63752 31.5519 5.02087 30.6144 4.71936C27.4622 3.70548 24.073 3.42954 20.7581 3.92927C16.8591 4.51703 13.2378 6.15142 10.3522 8.62576C7.46654 11.1001 5.44613 14.3033 4.54644 17.8302C3.64676 21.3571 3.90821 25.0494 5.29773 28.4401C6.68726 31.8308 9.14244 34.7677 12.3528 36.8793C15.5632 38.9909 19.3846 40.1825 23.3337 40.3033C27.2829 40.4241 31.1824 39.4687 34.5392 37.5579C37.3327 35.9678 39.6459 33.7756 41.2847 31.1837C41.842 30.3024 42.9409 29.8801 43.9036 30.2806Z" fill="#FFF3B3"/>
</svg>
