<svg width="68" height="44" viewBox="0 0 68 44" fill="none" xmlns="http://www.w3.org/2000/svg">
<path d="M68 21C68 26.5228 63.5228 31 58 31C52.4772 31 48 26.5228 48 21C48 15.4772 52.4772 11 58 11C63.5228 11 68 15.4772 68 21Z" fill="#FFF3B2"/>
<circle cx="39" cy="18" r="6" fill="#FFF3B2"/>
<ellipse cx="27" cy="28.5" rx="5" ry="4.5" fill="#FFF3B2"/>
<path d="M43.9036 30.2806C44.9597 30.72 45.4309 31.9662 44.8246 32.9363C42.8525 36.0918 40.0511 38.76 36.6608 40.6898C32.6282 42.9852 27.9437 44.1329 23.1996 43.9878C18.4555 43.8427 13.8649 42.4112 10.0082 39.8745C6.15159 37.3378 3.20216 33.8098 1.53292 29.7365C-0.136314 25.6632 -0.450395 21.2277 0.630398 16.9908C1.71119 12.7539 4.13832 8.90593 7.60485 5.9335C11.0714 2.96106 15.4216 0.997666 20.1055 0.291588C24.1235 -0.314127 28.2323 0.0287846 32.048 1.27378C33.075 1.60889 33.5127 2.78691 33.0333 3.75505C32.5964 4.63752 31.5519 5.02087 30.6144 4.71936C27.4622 3.70548 24.073 3.42954 20.7581 3.92927C16.8591 4.51703 13.2378 6.15142 10.3522 8.62576C7.46654 11.1001 5.44613 14.3033 4.54644 17.8302C3.64676 21.3571 3.90821 25.0494 5.29773 28.4401C6.68726 31.8308 9.14244 34.7677 12.3528 36.8793C15.5632 38.9909 19.3846 40.1825 23.3337 40.3033C27.2829 40.4241 31.1824 39.4687 34.5392 37.5579C37.3327 35.9678 39.6459 33.7756 41.2847 31.1837C41.842 30.3024 42.9409 29.8801 43.9036 30.2806Z" fill="#FFF3B3"/>
</svg>
