<svg width="47" height="68" viewBox="0 0 47 68" fill="none" xmlns="http://www.w3.org/2000/svg">
<path d="M0.409091 67V55.3636H4.34091C5.25379 55.3636 6 55.5284 6.57955 55.858C7.16288 56.1837 7.5947 56.625 7.875 57.1818C8.1553 57.7386 8.29545 58.3598 8.29545 59.0455C8.29545 59.7311 8.1553 60.3542 7.875 60.9148C7.59849 61.4754 7.17046 61.9223 6.59091 62.2557C6.01136 62.5852 5.26894 62.75 4.36364 62.75H1.54545V61.5H4.31818C4.94318 61.5 5.44508 61.392 5.82386 61.1761C6.20265 60.9602 6.47727 60.6686 6.64773 60.3011C6.82197 59.9299 6.90909 59.5114 6.90909 59.0455C6.90909 58.5795 6.82197 58.1629 6.64773 57.7955C6.47727 57.428 6.20076 57.1402 5.81818 56.9318C5.43561 56.7197 4.92803 56.6136 4.29545 56.6136H1.81818V67H0.409091ZM10.3835 67V58.2727H11.679V59.5909H11.7699C11.929 59.1591 12.2169 58.8087 12.6335 58.5398C13.0502 58.2708 13.5199 58.1364 14.0426 58.1364C14.1411 58.1364 14.2642 58.1383 14.4119 58.142C14.5597 58.1458 14.6714 58.1515 14.7472 58.1591V59.5227C14.7017 59.5114 14.5975 59.4943 14.4347 59.4716C14.2756 59.4451 14.107 59.4318 13.929 59.4318C13.5047 59.4318 13.1259 59.5208 12.7926 59.6989C12.4631 59.8731 12.2017 60.1155 12.0085 60.4261C11.8191 60.733 11.7244 61.0833 11.7244 61.4773V67H10.3835ZM19.6165 67.1818C18.8286 67.1818 18.1373 66.9943 17.5426 66.6193C16.9517 66.2443 16.4896 65.7197 16.1562 65.0455C15.8267 64.3712 15.6619 63.5833 15.6619 62.6818C15.6619 61.7727 15.8267 60.9792 16.1562 60.3011C16.4896 59.6231 16.9517 59.0966 17.5426 58.7216C18.1373 58.3466 18.8286 58.1591 19.6165 58.1591C20.4044 58.1591 21.0938 58.3466 21.6847 58.7216C22.2794 59.0966 22.7415 59.6231 23.071 60.3011C23.4044 60.9792 23.571 61.7727 23.571 62.6818C23.571 63.5833 23.4044 64.3712 23.071 65.0455C22.7415 65.7197 22.2794 66.2443 21.6847 66.6193C21.0938 66.9943 20.4044 67.1818 19.6165 67.1818ZM19.6165 65.9773C20.215 65.9773 20.7074 65.8239 21.0938 65.517C21.4801 65.2102 21.7661 64.8068 21.9517 64.3068C22.1373 63.8068 22.2301 63.2652 22.2301 62.6818C22.2301 62.0985 22.1373 61.5549 21.9517 61.0511C21.7661 60.5473 21.4801 60.1402 21.0938 59.8295C20.7074 59.5189 20.215 59.3636 19.6165 59.3636C19.018 59.3636 18.5256 59.5189 18.1392 59.8295C17.7528 60.1402 17.4669 60.5473 17.2812 61.0511C17.0956 61.5549 17.0028 62.0985 17.0028 62.6818C17.0028 63.2652 17.0956 63.8068 17.2812 64.3068C17.4669 64.8068 17.7528 65.2102 18.1392 65.517C18.5256 65.8239 19.018 65.9773 19.6165 65.9773ZM29.5043 58.2727V59.4091H24.7997V58.2727H29.5043ZM26.2088 67V57.0682C26.2088 56.5682 26.3262 56.1515 26.5611 55.8182C26.7959 55.4848 27.1009 55.2348 27.4759 55.0682C27.8509 54.9015 28.2467 54.8182 28.6634 54.8182C28.9929 54.8182 29.2618 54.8447 29.4702 54.8977C29.6785 54.9508 29.8338 55 29.9361 55.0455L29.5497 56.2045C29.4815 56.1818 29.3868 56.1534 29.2656 56.1193C29.1482 56.0852 28.9929 56.0682 28.7997 56.0682C28.3565 56.0682 28.0365 56.1799 27.8395 56.4034C27.6463 56.6269 27.5497 56.9545 27.5497 57.3864V67H26.2088ZM31.3835 67V58.2727H32.7244V67H31.3835ZM32.0653 56.8182C31.804 56.8182 31.5786 56.7292 31.3892 56.5511C31.2036 56.3731 31.1108 56.1591 31.1108 55.9091C31.1108 55.6591 31.2036 55.4451 31.3892 55.267C31.5786 55.089 31.804 55 32.0653 55C32.3267 55 32.5502 55.089 32.7358 55.267C32.9252 55.4451 33.0199 55.6591 33.0199 55.9091C33.0199 56.1591 32.9252 56.3731 32.7358 56.5511C32.5502 56.7292 32.3267 56.8182 32.0653 56.8182ZM36.5213 55.3636V67H35.1804V55.3636H36.5213ZM42.6364 67.1818C41.7955 67.1818 41.0701 66.9962 40.4602 66.625C39.8542 66.25 39.3864 65.7273 39.0568 65.0568C38.7311 64.3826 38.5682 63.5985 38.5682 62.7045C38.5682 61.8106 38.7311 61.0227 39.0568 60.3409C39.3864 59.6553 39.8447 59.1212 40.4318 58.7386C41.0227 58.3523 41.7121 58.1591 42.5 58.1591C42.9545 58.1591 43.4034 58.2348 43.8466 58.3864C44.2898 58.5379 44.6932 58.7841 45.0568 59.125C45.4205 59.4621 45.7102 59.9091 45.9261 60.4659C46.142 61.0227 46.25 61.7083 46.25 62.5227V63.0909H39.5227V61.9318H44.8864C44.8864 61.4394 44.7879 61 44.5909 60.6136C44.3977 60.2273 44.1212 59.9223 43.7614 59.6989C43.4053 59.4754 42.9848 59.3636 42.5 59.3636C41.9659 59.3636 41.5038 59.4962 41.1136 59.7614C40.7273 60.0227 40.4299 60.3636 40.2216 60.7841C40.0133 61.2045 39.9091 61.6553 39.9091 62.1364V62.9091C39.9091 63.5682 40.0227 64.1269 40.25 64.5852C40.4811 65.0398 40.8011 65.3864 41.2102 65.625C41.6193 65.8598 42.0947 65.9773 42.6364 65.9773C42.9886 65.9773 43.3068 65.928 43.5909 65.8295C43.8788 65.7273 44.1269 65.5758 44.3352 65.375C44.5436 65.1705 44.7045 64.9167 44.8182 64.6136L46.1136 64.9773C45.9773 65.4167 45.7481 65.803 45.4261 66.1364C45.1042 66.4659 44.7064 66.7235 44.233 66.9091C43.7595 67.0909 43.2273 67.1818 42.6364 67.1818Z" fill="white"/>
<circle cx="22.5" cy="12.5" r="11" fill="#164453" stroke="white" stroke-width="3"/>
<path d="M10.5 30C10.5 26.9624 12.9624 24.5 16 24.5H30C33.0376 24.5 35.5 26.9624 35.5 30V42.5H10.5V30Z" fill="#164453" stroke="white" stroke-width="3"/>
</svg>
