<svg width="105" height="63" viewBox="0 0 105 63" fill="none" xmlns="http://www.w3.org/2000/svg">
<path d="M42 16.5H60C63.5899 16.5 66.5 19.4101 66.5 23V37.5H35.5V23C35.5 19.4101 38.4101 16.5 42 16.5Z" fill="#164453" stroke="white" stroke-width="3"/>
<path d="M44.5451 20.5C44.244 20.5 43.9997 20.2559 44.0026 19.9549C44.0536 14.7156 44.8373 9.72014 46.1967 6.00431C47.6032 2.15981 49.5109 -9.59411e-07 51.5 -1.3701e-06C53.4891 -1.78079e-06 55.3968 2.15981 56.8033 6.00431C58.1627 9.72013 58.9464 14.7156 58.9974 19.9549C59.0003 20.2559 58.756 20.5 58.4549 20.5V20.5C58.1539 20.5 57.9102 20.2558 57.9068 19.9548C57.8562 15.506 57.1875 11.2682 56.0325 8.11126C54.8304 4.82556 53.2 2.97968 51.5 2.97968C49.8 2.97968 48.1696 4.82556 46.9675 8.11126C45.8125 11.2682 45.1438 15.506 45.0932 19.9548C45.0898 20.2558 44.8461 20.5 44.5451 20.5V20.5Z" fill="white"/>
<path d="M7.77273 50.2727C7.70455 49.697 7.42803 49.25 6.94318 48.9318C6.45833 48.6136 5.86364 48.4545 5.15909 48.4545C4.64394 48.4545 4.19318 48.5379 3.80682 48.7045C3.42424 48.8712 3.125 49.1004 2.90909 49.392C2.69697 49.6837 2.59091 50.0152 2.59091 50.3864C2.59091 50.697 2.66477 50.964 2.8125 51.1875C2.96402 51.4072 3.1572 51.5909 3.39205 51.7386C3.62689 51.8826 3.87311 52.0019 4.13068 52.0966C4.38826 52.1875 4.625 52.2614 4.84091 52.3182L6.02273 52.6364C6.32576 52.7159 6.66288 52.8258 7.03409 52.9659C7.40909 53.1061 7.76705 53.2973 8.10795 53.5398C8.45265 53.7784 8.73674 54.0852 8.96023 54.4602C9.18371 54.8352 9.29545 55.2955 9.29545 55.8409C9.29545 56.4697 9.13068 57.0379 8.80114 57.5455C8.47538 58.053 7.99811 58.4564 7.36932 58.7557C6.74432 59.0549 5.98485 59.2045 5.09091 59.2045C4.25758 59.2045 3.53598 59.0701 2.92614 58.8011C2.32008 58.5322 1.8428 58.1572 1.49432 57.6761C1.14962 57.1951 0.954545 56.6364 0.909091 56H2.36364C2.40152 56.4394 2.54924 56.803 2.80682 57.0909C3.06818 57.375 3.39773 57.5871 3.79545 57.7273C4.19697 57.8636 4.62879 57.9318 5.09091 57.9318C5.62879 57.9318 6.11174 57.8447 6.53977 57.6705C6.9678 57.4924 7.30682 57.2462 7.55682 56.9318C7.80682 56.6136 7.93182 56.2424 7.93182 55.8182C7.93182 55.4318 7.82386 55.1174 7.60795 54.875C7.39205 54.6326 7.10795 54.4356 6.75568 54.2841C6.40341 54.1326 6.02273 54 5.61364 53.8864L4.18182 53.4773C3.27273 53.2159 2.55303 52.8428 2.02273 52.358C1.49242 51.8731 1.22727 51.2386 1.22727 50.4545C1.22727 49.803 1.40341 49.2348 1.75568 48.75C2.11174 48.2614 2.58902 47.8826 3.1875 47.6136C3.78977 47.3409 4.46212 47.2045 5.20455 47.2045C5.95455 47.2045 6.62121 47.339 7.20455 47.608C7.78788 47.8731 8.25 48.2367 8.59091 48.6989C8.93561 49.161 9.11742 49.6856 9.13636 50.2727H7.77273ZM12.7713 53.75V59H11.4304V47.3636H12.7713V51.6364H12.8849C13.0895 51.1856 13.3963 50.8277 13.8054 50.5625C14.2183 50.2936 14.7675 50.1591 15.4531 50.1591C16.0478 50.1591 16.5687 50.2784 17.0156 50.517C17.4626 50.7519 17.8092 51.1136 18.0554 51.6023C18.3054 52.0871 18.4304 52.7045 18.4304 53.4545V59H17.0895V53.5455C17.0895 52.8523 16.9096 52.3163 16.5497 51.9375C16.1937 51.5549 15.6993 51.3636 15.0668 51.3636C14.6274 51.3636 14.2334 51.4564 13.8849 51.642C13.5402 51.8277 13.2675 52.0985 13.0668 52.4545C12.8698 52.8106 12.7713 53.2424 12.7713 53.75ZM24.429 59.1818C23.6411 59.1818 22.9498 58.9943 22.3551 58.6193C21.7642 58.2443 21.3021 57.7197 20.9688 57.0455C20.6392 56.3712 20.4744 55.5833 20.4744 54.6818C20.4744 53.7727 20.6392 52.9792 20.9688 52.3011C21.3021 51.6231 21.7642 51.0966 22.3551 50.7216C22.9498 50.3466 23.6411 50.1591 24.429 50.1591C25.2169 50.1591 25.9063 50.3466 26.4972 50.7216C27.0919 51.0966 27.554 51.6231 27.8835 52.3011C28.2169 52.9792 28.3835 53.7727 28.3835 54.6818C28.3835 55.5833 28.2169 56.3712 27.8835 57.0455C27.554 57.7197 27.0919 58.2443 26.4972 58.6193C25.9063 58.9943 25.2169 59.1818 24.429 59.1818ZM24.429 57.9773C25.0275 57.9773 25.5199 57.8239 25.9062 57.517C26.2926 57.2102 26.5786 56.8068 26.7642 56.3068C26.9498 55.8068 27.0426 55.2652 27.0426 54.6818C27.0426 54.0985 26.9498 53.5549 26.7642 53.0511C26.5786 52.5473 26.2926 52.1402 25.9062 51.8295C25.5199 51.5189 25.0275 51.3636 24.429 51.3636C23.8305 51.3636 23.3381 51.5189 22.9517 51.8295C22.5653 52.1402 22.2794 52.5473 22.0938 53.0511C21.9081 53.5549 21.8153 54.0985 21.8153 54.6818C21.8153 55.2652 21.9081 55.8068 22.0938 56.3068C22.2794 56.8068 22.5653 57.2102 22.9517 57.517C23.3381 57.8239 23.8305 57.9773 24.429 57.9773ZM30.4304 62.2727V50.2727H31.7259V51.6591H31.8849C31.9834 51.5076 32.1198 51.3144 32.294 51.0795C32.4721 50.8409 32.7259 50.6288 33.0554 50.4432C33.3887 50.2538 33.8395 50.1591 34.4077 50.1591C35.1425 50.1591 35.7902 50.3428 36.3509 50.7102C36.9115 51.0777 37.349 51.5985 37.6634 52.2727C37.9777 52.947 38.1349 53.7424 38.1349 54.6591C38.1349 55.5833 37.9777 56.3845 37.6634 57.0625C37.349 57.7367 36.9134 58.2595 36.3565 58.6307C35.7997 58.9981 35.1577 59.1818 34.4304 59.1818C33.8698 59.1818 33.4209 59.089 33.0838 58.9034C32.7467 58.714 32.4872 58.5 32.3054 58.2614C32.1236 58.0189 31.9834 57.8182 31.8849 57.6591H31.7713V62.2727H30.4304ZM31.7486 54.6364C31.7486 55.2955 31.8452 55.8769 32.0384 56.3807C32.2315 56.8807 32.5137 57.2727 32.8849 57.5568C33.2562 57.8371 33.7107 57.9773 34.2486 57.9773C34.8092 57.9773 35.277 57.8295 35.652 57.5341C36.0308 57.2348 36.3149 56.8333 36.5043 56.3295C36.6974 55.822 36.794 55.2576 36.794 54.6364C36.794 54.0227 36.6993 53.4697 36.5099 52.9773C36.3243 52.4811 36.0421 52.089 35.6634 51.8011C35.2884 51.5095 34.8168 51.3636 34.2486 51.3636C33.7031 51.3636 33.2448 51.5019 32.8736 51.7784C32.5024 52.0511 32.2221 52.4337 32.0327 52.9261C31.8433 53.4148 31.7486 53.9848 31.7486 54.6364ZM40.1804 62.2727V50.2727H41.4759V51.6591H41.6349C41.7334 51.5076 41.8698 51.3144 42.044 51.0795C42.2221 50.8409 42.4759 50.6288 42.8054 50.4432C43.1387 50.2538 43.5895 50.1591 44.1577 50.1591C44.8925 50.1591 45.5402 50.3428 46.1009 50.7102C46.6615 51.0777 47.099 51.5985 47.4134 52.2727C47.7277 52.947 47.8849 53.7424 47.8849 54.6591C47.8849 55.5833 47.7277 56.3845 47.4134 57.0625C47.099 57.7367 46.6634 58.2595 46.1065 58.6307C45.5497 58.9981 44.9077 59.1818 44.1804 59.1818C43.6198 59.1818 43.1709 59.089 42.8338 58.9034C42.4967 58.714 42.2372 58.5 42.0554 58.2614C41.8736 58.0189 41.7334 57.8182 41.6349 57.6591H41.5213V62.2727H40.1804ZM41.4986 54.6364C41.4986 55.2955 41.5952 55.8769 41.7884 56.3807C41.9815 56.8807 42.2637 57.2727 42.6349 57.5568C43.0062 57.8371 43.4607 57.9773 43.9986 57.9773C44.5592 57.9773 45.027 57.8295 45.402 57.5341C45.7808 57.2348 46.0649 56.8333 46.2543 56.3295C46.4474 55.822 46.544 55.2576 46.544 54.6364C46.544 54.0227 46.4493 53.4697 46.2599 52.9773C46.0743 52.4811 45.7921 52.089 45.4134 51.8011C45.0384 51.5095 44.5668 51.3636 43.9986 51.3636C43.4531 51.3636 42.9948 51.5019 42.6236 51.7784C42.2524 52.0511 41.9721 52.4337 41.7827 52.9261C41.5933 53.4148 41.4986 53.9848 41.4986 54.6364ZM49.9304 59V50.2727H51.2713V59H49.9304ZM50.6122 48.8182C50.3509 48.8182 50.1255 48.7292 49.9361 48.5511C49.7505 48.3731 49.6577 48.1591 49.6577 47.9091C49.6577 47.6591 49.7505 47.4451 49.9361 47.267C50.1255 47.089 50.3509 47 50.6122 47C50.8736 47 51.0971 47.089 51.2827 47.267C51.4721 47.4451 51.5668 47.6591 51.5668 47.9091C51.5668 48.1591 51.4721 48.3731 51.2827 48.5511C51.0971 48.7292 50.8736 48.8182 50.6122 48.8182ZM55.0682 53.75V59H53.7273V50.2727H55.0227V51.6364H55.1364C55.3409 51.1932 55.6515 50.8371 56.0682 50.5682C56.4848 50.2955 57.0227 50.1591 57.6818 50.1591C58.2727 50.1591 58.7898 50.2803 59.233 50.5227C59.6761 50.7614 60.0208 51.125 60.267 51.6136C60.5133 52.0985 60.6364 52.7121 60.6364 53.4545V59H59.2955V53.5455C59.2955 52.8598 59.1174 52.3258 58.7614 51.9432C58.4053 51.5568 57.9167 51.3636 57.2955 51.3636C56.8674 51.3636 56.4848 51.4564 56.1477 51.642C55.8144 51.8277 55.5511 52.0985 55.358 52.4545C55.1648 52.8106 55.0682 53.2424 55.0682 53.75ZM66.6094 62.4545C65.9616 62.4545 65.4048 62.3712 64.9389 62.2045C64.473 62.0417 64.0848 61.8258 63.7741 61.5568C63.4673 61.2917 63.223 61.0076 63.0412 60.7045L64.1094 59.9545C64.2306 60.1136 64.384 60.2955 64.5696 60.5C64.7552 60.7083 65.009 60.8883 65.331 61.0398C65.6567 61.1951 66.0829 61.2727 66.6094 61.2727C67.3139 61.2727 67.8954 61.1023 68.3537 60.7614C68.812 60.4205 69.0412 59.8864 69.0412 59.1591V57.3864H68.9276C68.8291 57.5455 68.6889 57.7424 68.5071 57.9773C68.3291 58.2083 68.0715 58.4148 67.7344 58.5966C67.401 58.7746 66.9503 58.8636 66.3821 58.8636C65.6776 58.8636 65.045 58.697 64.4844 58.3636C63.9276 58.0303 63.4863 57.5455 63.1605 56.9091C62.8385 56.2727 62.6776 55.5 62.6776 54.5909C62.6776 53.697 62.8348 52.9186 63.1491 52.2557C63.4635 51.589 63.901 51.0739 64.4616 50.7102C65.0223 50.3428 65.67 50.1591 66.4048 50.1591C66.973 50.1591 67.4238 50.2538 67.7571 50.4432C68.0942 50.6288 68.3518 50.8409 68.5298 51.0795C68.7116 51.3144 68.8518 51.5076 68.9503 51.6591H69.0866V50.2727H70.3821V59.25C70.3821 60 70.2116 60.6098 69.8707 61.0795C69.5336 61.553 69.0791 61.8996 68.5071 62.1193C67.9389 62.3428 67.3063 62.4545 66.6094 62.4545ZM66.5639 57.6591C67.1018 57.6591 67.5563 57.536 67.9276 57.2898C68.2988 57.0436 68.581 56.6894 68.7741 56.2273C68.9673 55.7652 69.0639 55.2121 69.0639 54.5682C69.0639 53.9394 68.9692 53.3845 68.7798 52.9034C68.5904 52.4223 68.3101 52.0455 67.9389 51.7727C67.5677 51.5 67.1094 51.3636 66.5639 51.3636C65.9957 51.3636 65.5223 51.5076 65.1435 51.7955C64.7685 52.0833 64.4863 52.4697 64.2969 52.9545C64.1113 53.4394 64.0185 53.9773 64.0185 54.5682C64.0185 55.1742 64.1132 55.7102 64.3026 56.1761C64.4957 56.6383 64.7798 57.0019 65.1548 57.267C65.5336 57.5284 66.0033 57.6591 66.5639 57.6591ZM77.5185 59V47.3636H78.8594V51.6591H78.973C79.0715 51.5076 79.2079 51.3144 79.3821 51.0795C79.5601 50.8409 79.8139 50.6288 80.1435 50.4432C80.4768 50.2538 80.9276 50.1591 81.4957 50.1591C82.2306 50.1591 82.8783 50.3428 83.4389 50.7102C83.9995 51.0777 84.437 51.5985 84.7514 52.2727C85.0658 52.947 85.223 53.7424 85.223 54.6591C85.223 55.5833 85.0658 56.3845 84.7514 57.0625C84.437 57.7367 84.0014 58.2595 83.4446 58.6307C82.8878 58.9981 82.2457 59.1818 81.5185 59.1818C80.9579 59.1818 80.509 59.089 80.1719 58.9034C79.8348 58.714 79.5753 58.5 79.3935 58.2614C79.2116 58.0189 79.0715 57.8182 78.973 57.6591H78.8139V59H77.5185ZM78.8366 54.6364C78.8366 55.2955 78.9332 55.8769 79.1264 56.3807C79.3196 56.8807 79.6018 57.2727 79.973 57.5568C80.3442 57.8371 80.7988 57.9773 81.3366 57.9773C81.8973 57.9773 82.3651 57.8295 82.7401 57.5341C83.1188 57.2348 83.4029 56.8333 83.5923 56.3295C83.7855 55.822 83.8821 55.2576 83.8821 54.6364C83.8821 54.0227 83.7874 53.4697 83.598 52.9773C83.4124 52.4811 83.1302 52.089 82.7514 51.8011C82.3764 51.5095 81.9048 51.3636 81.3366 51.3636C80.7912 51.3636 80.3329 51.5019 79.9616 51.7784C79.5904 52.0511 79.3101 52.4337 79.1207 52.9261C78.9313 53.4148 78.8366 53.9848 78.8366 54.6364ZM89.8423 59.2045C89.2893 59.2045 88.7874 59.1004 88.3366 58.892C87.8859 58.6799 87.5279 58.375 87.2628 57.9773C86.9976 57.5758 86.8651 57.0909 86.8651 56.5227C86.8651 56.0227 86.9635 55.6174 87.1605 55.3068C87.3575 54.9924 87.6207 54.7462 87.9503 54.5682C88.2798 54.3902 88.6435 54.2576 89.0412 54.1705C89.4427 54.0795 89.8461 54.0076 90.2514 53.9545C90.7817 53.8864 91.2116 53.8352 91.5412 53.8011C91.8745 53.7633 92.117 53.7008 92.2685 53.6136C92.4238 53.5265 92.5014 53.375 92.5014 53.1591V53.1136C92.5014 52.553 92.348 52.1174 92.0412 51.8068C91.7382 51.4962 91.2779 51.3409 90.6605 51.3409C90.0204 51.3409 89.5185 51.4811 89.1548 51.7614C88.7912 52.0417 88.5355 52.3409 88.3878 52.6591L87.1151 52.2045C87.3423 51.6742 87.6454 51.2614 88.0241 50.9659C88.4067 50.6667 88.8234 50.4583 89.2741 50.3409C89.7287 50.2197 90.1757 50.1591 90.6151 50.1591C90.8954 50.1591 91.2173 50.1932 91.581 50.2614C91.9484 50.3258 92.3026 50.4602 92.6435 50.6648C92.9882 50.8693 93.2741 51.178 93.5014 51.5909C93.7287 52.0038 93.8423 52.5568 93.8423 53.25V59H92.5014V57.8182H92.4332C92.3423 58.0076 92.1908 58.2102 91.9787 58.4261C91.7666 58.642 91.4844 58.8258 91.1321 58.9773C90.7798 59.1288 90.3499 59.2045 89.8423 59.2045ZM90.0469 58C90.5772 58 91.0241 57.8958 91.3878 57.6875C91.7552 57.4792 92.0317 57.2102 92.2173 56.8807C92.4067 56.5511 92.5014 56.2045 92.5014 55.8409V54.6136C92.4446 54.6818 92.3196 54.7443 92.1264 54.8011C91.937 54.8542 91.7173 54.9015 91.4673 54.9432C91.2211 54.9811 90.9806 55.0152 90.7457 55.0455C90.5147 55.072 90.3272 55.0947 90.1832 55.1136C89.8348 55.1591 89.509 55.233 89.206 55.3352C88.9067 55.4337 88.6643 55.5833 88.4787 55.7841C88.2969 55.9811 88.206 56.25 88.206 56.5909C88.206 57.0568 88.3783 57.4091 88.723 57.6477C89.0715 57.8826 89.5128 58 90.0469 58ZM99.8125 62.4545C99.1648 62.4545 98.608 62.3712 98.142 62.2045C97.6761 62.0417 97.2879 61.8258 96.9773 61.5568C96.6705 61.2917 96.4261 61.0076 96.2443 60.7045L97.3125 59.9545C97.4337 60.1136 97.5871 60.2955 97.7727 60.5C97.9583 60.7083 98.2121 60.8883 98.5341 61.0398C98.8598 61.1951 99.286 61.2727 99.8125 61.2727C100.517 61.2727 101.098 61.1023 101.557 60.7614C102.015 60.4205 102.244 59.8864 102.244 59.1591V57.3864H102.131C102.032 57.5455 101.892 57.7424 101.71 57.9773C101.532 58.2083 101.275 58.4148 100.938 58.5966C100.604 58.7746 100.153 58.8636 99.5852 58.8636C98.8807 58.8636 98.2481 58.697 97.6875 58.3636C97.1307 58.0303 96.6894 57.5455 96.3636 56.9091C96.0417 56.2727 95.8807 55.5 95.8807 54.5909C95.8807 53.697 96.0379 52.9186 96.3523 52.2557C96.6667 51.589 97.1042 51.0739 97.6648 50.7102C98.2254 50.3428 98.8731 50.1591 99.608 50.1591C100.176 50.1591 100.627 50.2538 100.96 50.4432C101.297 50.6288 101.555 50.8409 101.733 51.0795C101.915 51.3144 102.055 51.5076 102.153 51.6591H102.29V50.2727H103.585V59.25C103.585 60 103.415 60.6098 103.074 61.0795C102.737 61.553 102.282 61.8996 101.71 62.1193C101.142 62.3428 100.509 62.4545 99.8125 62.4545ZM99.767 57.6591C100.305 57.6591 100.759 57.536 101.131 57.2898C101.502 57.0436 101.784 56.6894 101.977 56.2273C102.17 55.7652 102.267 55.2121 102.267 54.5682C102.267 53.9394 102.172 53.3845 101.983 52.9034C101.794 52.4223 101.513 52.0455 101.142 51.7727C100.771 51.5 100.313 51.3636 99.767 51.3636C99.1989 51.3636 98.7254 51.5076 98.3466 51.7955C97.9716 52.0833 97.6894 52.4697 97.5 52.9545C97.3144 53.4394 97.2216 53.9773 97.2216 54.5682C97.2216 55.1742 97.3163 55.7102 97.5057 56.1761C97.6989 56.6383 97.983 57.0019 98.358 57.267C98.7367 57.5284 99.2064 57.6591 99.767 57.6591Z" fill="white"/>
</svg>
